<svg viewBox="0 0 300 88.976" xmlns="http://www.w3.org/2000/svg"><g fill="#ed1b23"><path d="M34.24 87.38H.995L17.62 58.587h33.245L34.24 87.38zM67.49 87.38h33.251L84.12 58.587H50.868L67.49 87.38zM67.49 29.79L50.868.997 34.243 29.79l16.625 28.79L67.49 29.79z"/></g><g fill="#221e1f"><path d="M115.67 75.12h13.316v-4.829H115.67v-5.94h14.98v-4.83h-20.623v27.856h21.017v-4.829H115.67V75.12zM115.28 34.17l5.915 20.704h5.42l5.917-20.704v20.704h5.256V27.022H129.739l-5.831 19.55-5.833-19.55h-8.051v27.852h5.256V34.17zM243.5 27.02h-5.612v27.852h5.612V27.02zM248.08 59.52h-5.61v27.859h5.61V59.52zM299 27.02h-5.61v27.852H299V27.02zM145.63 27.02h-5.612v27.852h5.612V27.02zM285.55 37.89h-11.152V27.027h-5.52v27.85h5.52V42.719h11.152v12.158h5.521v-27.85h-5.521V37.89zM153.93 54.87h5.732V31.842h6.805v-4.824h-19.342v4.824h6.805V54.87zM205.11 87.38h5.723V64.354h6.807v-4.832H198.3v4.832h6.81V87.38zM201.28 55.65c7.146 0 11.112-3.252 11.112-9.47V27.023h-5.61v19.664c0 2.394-2.016 4.395-5.502 4.395-4.218 0-5.46-2.361-5.46-4.395V27.023h-5.517V46.18c0 6.694 4.155 9.47 10.977 9.47M158.87 75.12h13.322v-4.829H158.87v-5.94h14.985v-4.83H153.229v27.856h21.017v-4.829H158.87V75.12zM226.94 31.45c1.532 0 3.246 1.425 3.246 3.298 0 1.67-1.198 3.507-3.56 3.507h-6.68V31.45h6.994zm-.415 19.218h-6.58V42.59h6.515c2.345 0 4.328 1.347 4.328 4.048 0 2.286-1.8 4.029-4.263 4.029m-6.363 4.21h8.04c5.24 0 8.366-3.135 8.366-7.52 0-3.544-2.572-6.585-5.372-7.284 2.448-.623 4.414-3.122 4.414-6.197 0-4.107-3.035-6.85-8.68-6.85H214.37v27.85h5.792zM224.66 71.89v-7.58h6.793c2.292 0 3.82 1.608 3.82 3.808 0 1.547-1.358 3.772-3.654 3.772h-6.959zm11.181 2.113c2.39-.72 4.955-2.862 4.955-6.729 0-4.953-3.355-7.794-9.064-7.794h-12.717v27.856h5.645V76.359h4.789c2.898 0 4.473 1.503 4.948 3.488.52 2.189.388 5.451.947 7.489h5.671c-.551-2.133-.876-5.033-.998-7.323-.204-3.77-2.187-5.273-4.176-6.01M138.49 59.52h-5.641V87.378h18.771v-4.83h-13.13V59.52zM175.89 43.1c4.521.79 7.091 1.623 7.091 4.321 0 1.827-1.81 3.56-5.559 3.56-3.75 0-5.672-2.133-5.672-4.663h-5.408c0 4.844 3.139 9.272 11.325 9.272 7.792 0 11.17-4.123 11.17-8.832 0-4.388-2.877-7.173-8.024-8.184-4.942-.97-8.335-1.18-8.335-4.312 0-2.152 1.968-3.423 4.99-3.423 3.22 0 5.065 1.58 5.065 4.252h5.45c0-4.395-3.33-8.919-10.737-8.919-5.109 0-10.41 2.943-10.41 8.447 0 4.627 3.398 7.492 9.054 8.481M254.42 43.1c4.517.79 7.085 1.623 7.085 4.321 0 1.827-1.804 3.56-5.555 3.56-3.749 0-5.677-2.133-5.677-4.663h-5.403c0 4.844 3.136 9.272 11.32 9.272 7.793 0 11.173-4.123 11.173-8.832 0-4.388-2.875-7.173-8.02-8.184-4.946-.97-8.335-1.18-8.335-4.312 0-2.152 1.964-3.423 4.99-3.423 3.21 0 5.06 1.58 5.06 4.252h5.453c0-4.395-3.333-8.919-10.738-8.919-5.112 0-10.412 2.943-10.412 8.447 0 4.627 3.403 7.492 9.059 8.481"/><path d="M186.95 83.07c-4.538 0-7.186-4.446-7.186-9.74 0-5.295 2.555-9.747 7.186-9.747 3.444 0 5.212 2.145 5.978 4.763h5.843c-.958-5.451-5.222-9.503-11.981-9.503-8.52 0-12.83 6.52-12.83 14.566s4.486 14.561 12.83 14.561c6.679 0 11.188-3.881 12.015-9.832h-5.877c-.766 2.8-2.595 4.932-5.978 4.932M262.43 83.07c-4.536 0-7.184-4.446-7.184-9.74 0-5.295 2.551-9.747 7.184-9.747 3.448 0 5.216 2.145 5.978 4.763h5.843c-.96-5.451-5.222-9.503-11.983-9.503-8.523 0-12.83 6.52-12.83 14.566s4.486 14.561 12.83 14.561c6.68 0 11.187-3.881 12.017-9.832h-5.877c-.762 2.8-2.6 4.932-5.978 4.932"/></g></svg>