<svg version="1" viewBox="0 0 225 56.25" xmlns="http://www.w3.org/2000/svg"><path d="M34.742 1.319c-.078.105-.052.288.079.392.471.315 1.152 1.571 1.44 2.697.21.733.366 5 .47 12.646.106 8.168.237 11.676.472 12.043.157.288.576 1.1.917 1.832.863 1.886 3.43 4.347 5.602 5.368 2.566 1.204 2.618 1.23 4.922 1.701 3.509.76 7.226.236 10.734-1.44 2.645-1.282 4.792-3.246 5.734-5.262 1.178-2.487 1.23-2.985 1.23-14.766V5.272l.629-1.309c.34-.733.942-1.623 1.335-2.042.393-.393.602-.707.42-.707-2.488-.078-8.745 0-8.85.079-.052.078.21.445.576.864.366.392.733 1.02.838 1.387.078.367.288.838.445 1.047.21.262.288 3.77.288 11.651 0 10.525-.026 11.363-.498 12.331-.89 1.885-2.016 3.194-3.377 3.954-1.257.706-1.57.759-4.11.759-4.634 0-6.572-1.257-7.436-4.791C46.026 26.06 45.974 7 46.55 4.8c.445-1.676 1.1-3.063 1.466-3.063.157 0 .262-.105.262-.262 0-.314-13.353-.471-13.536-.157zm47.754-.157l-6.99.052.916.916c.498.524 1.178 1.414 1.493 2.043l.602 1.1.078 15.315c.027 8.718-.052 16.337-.183 17.672-.34 2.985-.812 5.681-1.073 6.022-.105.13-.288.68-.393 1.178s-.288 1.073-.393 1.309c-.13.21-.654 1.283-1.178 2.356s-1.492 2.75-2.12 3.718c-.655.969-1.126 1.885-1.022 2.042.21.314 1.205.34 2.042.026 1.022-.392 5.498-4.974 7.462-7.645 2.147-2.906 4.503-7.33 4.503-8.404 0-.21.105-.47.236-.602.733-.785.89-3.796 1.047-18.51.131-11.572.236-15.185.498-15.447.157-.157.314-.523.314-.785s.419-.89.916-1.361c.524-.524.785-.917.576-.97-.157-.051-3.456-.078-7.33-.025zm33.852.183c-.104.13-.288.916-.366 1.702-.105.785-.262 1.937-.34 2.54-.158 1.256.026 1.36.837.601.314-.288 1.23-.759 2.069-1.047 1.282-.471 2.042-.523 5.471-.471l3.98.078.078 14.217c.053 13.535.027 14.268-.445 15.316-.288.602-.811 1.387-1.178 1.728-.366.366-.68.733-.68.864 0 .288 13.535.261 13.745-.027.078-.157-.079-.392-.367-.523-.288-.157-.838-.969-1.257-1.78l-.733-1.519-.078-13.614c-.053-7.488 0-13.876.078-14.216.131-.576.21-.576 4.19-.576 3.377 0 4.32.078 5.55.523.811.288 1.649.68 1.91.917.839.759 1.048.497.89-1.257-.104-.89-.235-2.042-.34-2.54l-.183-.916-16.31-.13c-10.708-.08-16.364-.053-16.52.13zm38.486-.183c-.13.052.079.523.524 1.047 1.57 1.99 1.57 2.016 1.57 16.887 0 14.949-.025 15.342-1.596 16.834-.419.393-.76.812-.76.943 0 .104 6.677.183 14.871.157l14.845-.079.157-1.309c.105-.733.262-1.859.367-2.566.157-1.02.13-1.23-.21-1.23-.235 0-.471.105-.576.235-.21.34-1.623 1.048-2.88 1.414-.68.183-3.534.288-7.985.314h-6.938V19.933l4.975-.078c5.916-.079 7.173.183 8.744 1.806.55.576 1.047.943 1.152.838.262-.262.21-8.666-.052-8.823-.105-.078-.445.105-.707.42-.786.863-2.461 1.832-3.901 2.224-.89.236-2.67.34-5.577.315-3.796-.053-4.293-.105-4.503-.524-.157-.262-.262-2.88-.262-5.812 0-4.425.079-5.42.393-5.681.288-.236 2.068-.288 7.252-.21 7.645.105 7.802.131 10.132 2.016l1.152.943-.183-1.048a58.468 58.468 0 0 1-.314-2.958c-.105-1.047-.262-1.964-.393-2.016-.21-.157-28.878-.314-29.297-.183zM.68 1.92c.367.42.89 1.205 1.153 1.781.47.995.497 1.938.497 15.709v14.66l-.733 1.126c-.393.628-.89 1.178-1.1 1.283-.209.078-.314.235-.235.366.157.262 13.457.34 13.457.079 0-.105-.34-.576-.786-1.073-.418-.472-.785-1.1-.785-1.388 0-.262-.105-.576-.262-.655-.393-.235-.34-13.3.053-13.692.209-.21 1.675-.314 4.87-.314 5.366 0 6.65.288 8.534 1.832.707.576 1.335 1.021 1.388.969.21-.236.105-8.692-.105-8.692-.236 0-1.466.864-2.252 1.57-.183.158-.863.498-1.518.734-1.021.392-1.964.445-6.153.392l-4.948-.078V4.748l7.279-.078c6.911-.052 7.33-.026 8.508.497.681.315 1.545.864 1.938 1.23s.785.603.838.55c.078-.078.052-1.36-.053-2.853l-.183-2.749-15.028-.079L0 1.214zm97.158.367c1.65 1.912 1.755 2.985 1.755 17.306 0 13.798-.053 14.216-1.598 16.232-.418.524-.759 1.021-.759 1.1 0 .21 13.222.183 13.431 0 .079-.105-.236-.628-.733-1.204-1.623-1.912-1.754-3.142-1.623-16.887.052-6.598.235-12.646.392-13.457.288-1.65.838-2.697 1.86-3.56l.68-.603H96.922zm107.526-.837c-.21.157-.943.34-1.623.419-.681.104-1.31.288-1.414.418-.079.131-.34.236-.576.236-.393 0-4.058 1.702-4.634 2.173-.131.105-.681.498-1.178.864-2.41 1.702-5.053 5.027-6.074 7.566-1.021 2.514-1.257 3.797-1.257 6.677 0 2.853.262 4.215 1.23 6.545 1.597 3.875 4.792 7.173 8.902 9.163 4.058 1.964 5.236 2.226 10.158 2.226 5.158-.027 6.624-.315 10.734-2.252 1.283-.602 2.357-1.388 3.587-2.644l1.78-1.754V26.74l-.863 1.047c-2.147 2.67-5.237 5.131-6.886 5.524-.419.105-.89.288-1.047.419-.969.733-7.698.733-9.19 0-.262-.131-.942-.445-1.518-.733a12.52 12.52 0 0 1-6.598-7.305c-1.44-4.189-1.597-6.31-.628-9.948.235-.995 1.701-4.137 2.173-4.713.13-.157.576-.68.995-1.178s.785-.995.785-1.074c0-.34 3.09-2.54 4.582-3.272 1.518-.733 1.675-.76 5.681-.76 2.932 0 4.215.105 4.45.315.158.183.498.34.708.34.864 0 4.293 1.99 5.838 3.377 1.335 1.23 1.57 1.362 1.44.812-.21-.655-.68-5.786-.707-7.2v-.785l-1.047 1.1c-.55.628-1.074 1.125-1.152 1.125s-.76-.288-1.519-.628c-1.44-.655-3.089-1.178-5.262-1.702-1.492-.34-9.32-.393-9.87-.052z" fill="#d12232"/></svg>